<svg xmlns="http://www.w3.org/2000/svg" viewBox="0 0 19.839 19.595">
  <defs>
    <style>
      .cls-1 {
        fill: #e1b828;
      }
    </style>
  </defs>
  <g id="ic-Calender" transform="translate(-0.08 -0.203)">
    <path id="Shape" class="cls-1" d="M16.912,19.595H2.927A2.967,2.967,0,0,1,0,16.6V4.885a2.968,2.968,0,0,1,2.927-3h.632V.75a.732.732,0,1,1,1.463,0V1.885H9.188V.75a.732.732,0,1,1,1.463,0V1.885h4.165V.75a.732.732,0,1,1,1.463,0V1.885h.632a2.968,2.968,0,0,1,2.927,3V16.6A2.967,2.967,0,0,1,16.912,19.595ZM1.463,8.41V16.6a1.484,1.484,0,0,0,1.463,1.5H16.912a1.484,1.484,0,0,0,1.463-1.5V8.41ZM2.927,3.385a1.484,1.484,0,0,0-1.463,1.5V6.91H18.375V4.885a1.484,1.484,0,0,0-1.463-1.5H16.28V4.52a.732.732,0,1,1-1.463,0V3.385H10.652V4.52a.732.732,0,1,1-1.463,0V3.385H5.022V4.52a.732.732,0,1,1-1.463,0V3.385Z" transform="translate(0.08 0.203)"/>
  </g>
</svg>
