<svg xmlns="http://www.w3.org/2000/svg" width="21.447" height="21.447" viewBox="0 0 21.447 21.447">
  <g id="ic-Diet" transform="translate(0.723 0.724)">
    <path id="Path" d="M19.947,0V5.268A2.746,2.746,0,0,1,17.186,8H0V2.684" transform="translate(0.027 11.974)" fill="none" stroke="#e1b828" stroke-linecap="round" stroke-linejoin="round" stroke-miterlimit="10" stroke-width="1.5"/>
    <path id="Path-2" data-name="Path" d="M0,5.368H17.234a2.7,2.7,0,0,0,2.713-2.684h0A2.7,2.7,0,0,0,17.234,0H15.8" transform="translate(0.027 9.289)" fill="none" stroke="#e1b828" stroke-linecap="round" stroke-linejoin="round" stroke-miterlimit="10" stroke-width="1.5"/>
    <path id="Path-3" data-name="Path" d="M1.29,9.2S-.563,5.681.173,3.617C2.141-1.91,6.073.61,7.141.564,8.364.511,12.977-1.758,14.428,3.2a6.111,6.111,0,0,1-1.489,6" transform="translate(1.184 5.462)" fill="none" stroke="#e1b828" stroke-linecap="round" stroke-linejoin="round" stroke-miterlimit="10" stroke-width="1.5"/>
    <path id="Path-4" data-name="Path" d="M2.616,0A5.264,5.264,0,0,0,.01,4.211,4.182,4.182,0,0,0,.329,6" transform="translate(7.995 0.026)" fill="none" stroke="#e1b828" stroke-linecap="round" stroke-linejoin="round" stroke-miterlimit="10" stroke-width="1.5"/>
    <path id="Path-5" data-name="Path" d="M0,.028a3.187,3.187,0,0,1,2.713,1A4.807,4.807,0,0,1,4.043,4.08,5.613,5.613,0,0,1,1.17,2.975,5.983,5.983,0,0,1,0,.028Z" transform="translate(3.963 0.156)" fill="none" stroke="#e1b828" stroke-linecap="round" stroke-linejoin="round" stroke-miterlimit="10" stroke-width="1.5"/>
    <path id="Path-6" data-name="Path" d="M.05,0V1.421" transform="translate(15.851 18.553)" fill="none" stroke="#e1b828" stroke-linecap="round" stroke-linejoin="round" stroke-miterlimit="10" stroke-width="1.5"/>
    <path id="Path-7" data-name="Path" d="M.05,0V2.684" transform="translate(13.191 17.289)" fill="none" stroke="#e1b828" stroke-linecap="round" stroke-linejoin="round" stroke-miterlimit="10" stroke-width="1.5"/>
    <path id="Path-8" data-name="Path" d="M.05,0V1.421" transform="translate(10.532 18.553)" fill="none" stroke="#e1b828" stroke-linecap="round" stroke-linejoin="round" stroke-miterlimit="10" stroke-width="1.5"/>
    <path id="Path-9" data-name="Path" d="M.05,0V1.421" transform="translate(7.872 18.553)" fill="none" stroke="#e1b828" stroke-linecap="round" stroke-linejoin="round" stroke-miterlimit="10" stroke-width="1.5"/>
    <path id="Path-10" data-name="Path" d="M.05,0V2.684" transform="translate(5.213 17.289)" fill="none" stroke="#e1b828" stroke-linecap="round" stroke-linejoin="round" stroke-miterlimit="10" stroke-width="1.5"/>
    <path id="Path-11" data-name="Path" d="M.05,0V1.421" transform="translate(2.553 18.553)" fill="none" stroke="#e1b828" stroke-linecap="round" stroke-linejoin="round" stroke-miterlimit="10" stroke-width="1.5"/>
  </g>
</svg>
