<svg xmlns="http://www.w3.org/2000/svg" width="22.676" height="17.362" viewBox="0 0 22.676 17.362">
  <g id="ic-Dish" transform="translate(-0.77 -0.028)">
    <path id="Shape" d="M20.365,17.362H2.31a2.276,2.276,0,0,1-1.636-.687A2.369,2.369,0,0,1,0,15.006,2.333,2.333,0,0,1,2.31,12.65,7.694,7.694,0,0,1,4.428,7.885a9.215,9.215,0,0,1,4.3-2.476A3.162,3.162,0,0,1,8.043,3.4a3.338,3.338,0,1,1,6.674,0,3.165,3.165,0,0,1-.684,2.006,8.689,8.689,0,0,1,4.3,2.443,7.892,7.892,0,0,1,2.118,4.8,2.3,2.3,0,0,1,2.225,2.355A2.369,2.369,0,0,1,22,16.675,2.276,2.276,0,0,1,20.365,17.362ZM2.31,14.4a.611.611,0,0,0,0,1.221H20.365a.611.611,0,0,0,0-1.221ZM11.3,6.718c-3.355,0-6.931,1.834-7.358,5.933h14.8a5.968,5.968,0,0,0-2.225-4.188A8.161,8.161,0,0,0,11.3,6.718Zm0-5.06A1.707,1.707,0,0,0,9.67,3.316,1.707,1.707,0,0,0,11.3,4.973a1.707,1.707,0,0,0,1.626-1.658A1.644,1.644,0,0,0,11.3,1.658Z" transform="translate(0.77 0.028)" fill="#e1b828"/>
  </g>
</svg>
