<svg xmlns="http://www.w3.org/2000/svg" width="19.699" height="19.694" viewBox="0 0 19.699 19.694">
  <g id="ic-Edit" transform="translate(-0.151 -0.15)">
    <path id="Shape" d="M18.515,1.294a4.037,4.037,0,0,1,0,5.711l-.378.4a.77.77,0,1,1-1.089-1.089l.4-.4a2.468,2.468,0,0,0,0-3.511l-.133-.133a2.468,2.468,0,0,0-3.511,0L2.093,13.961,1.649,18.05l4.089-.444,8.489-8.489L12.4,7.294a.77.77,0,1,1,1.089-1.089l2.378,2.378a.752.752,0,0,1,0,1.089L6.649,18.894a.768.768,0,0,1-.467.222l-5.311.578H.782a.877.877,0,0,1-.556-.222A.774.774,0,0,1,0,18.828l.578-5.311A.768.768,0,0,1,.8,13.05L12.671,1.183a4.037,4.037,0,0,1,5.711,0Z" transform="translate(0.151 0.15)" fill="#e1b828"/>
  </g>
</svg>
