<svg xmlns="http://www.w3.org/2000/svg" width="41.441" height="41.438" viewBox="0 0 41.441 41.438">
  <g id="ic-Fast-Food" transform="translate(0.703 0.698)">
    <path id="Path" d="M0,6.6,1.247,1.774A2.406,2.406,0,0,1,3.573,0h4V3.247H4.216L3.3,6.641Z" transform="translate(26.542 0.052)" fill="none" stroke="#7e9a2b" stroke-linecap="round" stroke-linejoin="round" stroke-miterlimit="10" stroke-width="1.5"/>
    <path id="Path-2" data-name="Path" d="M0,0H25.325V3.9H0Z" transform="translate(14.663 11.416)" fill="none" stroke="#7e9a2b" stroke-linecap="round" stroke-linejoin="round" stroke-miterlimit="10" stroke-width="1.5"/>
    <path id="Path-3" data-name="Path" d="M.821,5.868,0,0H21.429l-2,14.309" transform="translate(16.611 15.311)" fill="none" stroke="#7e9a2b" stroke-linecap="round" stroke-linejoin="round" stroke-miterlimit="10" stroke-width="1.5"/>
    <path id="Path-4" data-name="Path" d="M15.046,0l-.519,3.73H0" transform="translate(20.062 36.26)" fill="none" stroke="#7e9a2b" stroke-linecap="round" stroke-linejoin="round" stroke-miterlimit="10" stroke-width="1.5"/>
    <path id="Path-5" data-name="Path" d="M.063,0,.041.163" transform="translate(35.477 33.169)" fill="none" stroke="#e1b828" stroke-linecap="round" stroke-linejoin="round" stroke-miterlimit="10" stroke-width="1.5"/>
    <path id="Path-6" data-name="Path" d="M19.376,0H1.728L0,4.545H21.1Z" transform="translate(16.773 6.871)" fill="none" stroke="#7e9a2b" stroke-linecap="round" stroke-linejoin="round" stroke-miterlimit="10" stroke-width="1.5"/>
    <path id="Path-7" data-name="Path" d="M14.611,0h6.71a1.461,1.461,0,0,1,1.461,1.461v.358a5.973,5.973,0,0,1-5.973,5.973H5.974A5.973,5.973,0,0,1,0,1.819V1.461A1.461,1.461,0,0,1,1.461,0h9.524" transform="translate(0.052 32.195)" fill="none" stroke="#7e9a2b" stroke-linecap="round" stroke-linejoin="round" stroke-miterlimit="10" stroke-width="1.5"/>
    <path id="Path-8" data-name="Path" d="M10.936,4.545H2.225A2.273,2.273,0,0,1,2.225,0H20.46a2.273,2.273,0,0,1,0,4.545h-5.9" transform="translate(0.101 27.65)" fill="none" stroke="#7e9a2b" stroke-linecap="round" stroke-linejoin="round" stroke-miterlimit="10" stroke-width="1.5"/>
    <path id="Path-9" data-name="Path" d="M12.717,0,6.358,6.358,0,0" transform="translate(6.491 27.65)" fill="none" stroke="#e1b828" stroke-linecap="round" stroke-linejoin="round" stroke-miterlimit="10" stroke-width="1.5"/>
    <path id="Path-10" data-name="Path" d="M1.1,6.5H21.69a1.1,1.1,0,0,0,1.1-1.1,5.4,5.4,0,0,0-5.4-5.4H5.4A5.4,5.4,0,0,0,0,5.4,1.1,1.1,0,0,0,1.1,6.5Z" transform="translate(0.047 21.151)" fill="none" stroke="#7e9a2b" stroke-linecap="round" stroke-linejoin="round" stroke-miterlimit="10" stroke-width="1.5"/>
    <path id="Path-11" data-name="Path" d="M0,.052H8.228" transform="translate(29.266 19.137)" fill="none" stroke="#7e9a2b" stroke-linecap="round" stroke-linejoin="round" stroke-miterlimit="10" stroke-width="1.5"/>
    <path id="Path-12" data-name="Path" d="M0,.052H.208" transform="translate(25.942 19.137)" fill="none" stroke="#e1b828" stroke-linecap="round" stroke-linejoin="round" stroke-miterlimit="10" stroke-width="1.5"/>
  </g>
</svg>
