<svg xmlns="http://www.w3.org/2000/svg" width="41.396" height="39.395" viewBox="0 0 41.396 39.395">
  <g id="ic-First-Course" transform="translate(0.694 0.698)">
    <path id="Path" d="M0,0H18.286V3.14a1.043,1.043,0,0,1-1.039,1.047H1.039A1.043,1.043,0,0,1,0,3.14Z" transform="translate(10.857 33.76)" fill="none" stroke="#7e9a2b" stroke-linecap="round" stroke-linejoin="round" stroke-miterlimit="10" stroke-width="1.5"/>
    <path id="Path-2" data-name="Path" d="M38.225,0H1.662A1.669,1.669,0,0,0,0,1.675V2.3A20.118,20.118,0,0,0,10.805,20.17V20.1H29.091v.071A20.118,20.118,0,0,0,39.9,2.3V1.675a1.681,1.681,0,0,0-.49-1.187A1.656,1.656,0,0,0,38.225,0Z" transform="translate(0.056 13.661)" fill="none" stroke="#7e9a2b" stroke-linecap="round" stroke-linejoin="round" stroke-miterlimit="10" stroke-width="1.5"/>
    <path id="Path-3" data-name="Path" d="M0,.052H39.728" transform="translate(0.136 17.764)" fill="none" stroke="#7e9a2b" stroke-linecap="round" stroke-linejoin="round" stroke-miterlimit="10" stroke-width="1.5"/>
    <path id="Path-4" data-name="Path" d="M0,0A43.126,43.126,0,0,0,2.494,3.873c.935,1.152,3.013,3.14,3.013,3.14" transform="translate(5.766 21.722)" fill="none" stroke="#e1b828" stroke-linecap="round" stroke-linejoin="round" stroke-miterlimit="10" stroke-width="1.5"/>
    <path id="Path-5" data-name="Path" d="M.052,0V5.862" transform="translate(11.948 2.565)" fill="none" stroke="#e1b828" stroke-linecap="round" stroke-linejoin="round" stroke-miterlimit="10" stroke-width="1.5"/>
    <path id="Path-6" data-name="Path" d="M.052,0V5.862" transform="translate(21.818 0.052)" fill="none" stroke="#e1b828" stroke-linecap="round" stroke-linejoin="round" stroke-miterlimit="10" stroke-width="1.5"/>
    <path id="Path-7" data-name="Path" d="M.052,0V5.862" transform="translate(27.532 3.088)" fill="none" stroke="#e1b828" stroke-linecap="round" stroke-linejoin="round" stroke-miterlimit="10" stroke-width="1.5"/>
  </g>
</svg>
