<svg xmlns="http://www.w3.org/2000/svg" viewBox="0 0 18.825 19.309">
  <defs>
    <style>
      .cls-1 {
        fill: #e1b828;
      }
    </style>
  </defs>
  <g id="ic-Price" transform="translate(-0.088 -0.346)">
    <path id="Shape" class="cls-1" d="M8.528,19.309A.736.736,0,0,1,8,19.084L.22,11.106a.786.786,0,0,1,0-1.088L9.766.228A.733.733,0,0,1,10.3,0h.031l7.424.363a.739.739,0,0,1,.464.193.779.779,0,0,1,.254.544l.354,7.615a.78.78,0,0,1-.22.578L9.059,19.084A.737.737,0,0,1,8.528,19.309ZM10.589,1.559h0l-8.778,9,6.718,6.89,8.778-9L17,1.87ZM13.3,7.97A2.205,2.205,0,0,1,11.71,7.3a2.352,2.352,0,0,1,0-3.263,2.221,2.221,0,0,1,3.182,0,2.352,2.352,0,0,1,0,3.263A2.205,2.205,0,0,1,13.3,7.97Zm0-3.077a.738.738,0,0,0-.53.23.774.774,0,0,0,0,1.088.725.725,0,0,0,1.06,0,.774.774,0,0,0,0-1.088A.738.738,0,0,0,13.3,4.893Z" transform="translate(0.087 0.346)"/>
  </g>
</svg>
