<svg xmlns="http://www.w3.org/2000/svg" width="41.437" height="30.423" viewBox="0 0 41.437 30.423">
  <g id="ic-Sushi" transform="translate(0.699 0.699)">
    <path id="Path" d="M.033,0V6.563H.071" transform="translate(11.058 4.872)" fill="none" stroke="#7e9a2b" stroke-linecap="round" stroke-linejoin="round" stroke-miterlimit="10" stroke-width="1.5"/>
    <path id="Path-2" data-name="Path" d="M.052,6.563V0" transform="translate(28.897 4.872)" fill="none" stroke="#7e9a2b" stroke-linecap="round" stroke-linejoin="round" stroke-miterlimit="10" stroke-width="1.5"/>
    <path id="Path-3" data-name="Path" d="M0,0A19.273,19.273,0,0,0,2.11.113,19.417,19.417,0,0,0,4.22,0" transform="translate(17.91 17.613)" fill="none" stroke="#7e9a2b" stroke-linecap="round" stroke-linejoin="round" stroke-miterlimit="10" stroke-width="1.5"/>
    <path id="Path-4" data-name="Path" d="M0,0V8.838c0,2.218,4,4.017,8.929,4.017s8.929-1.8,8.929-4.017V0" transform="translate(22.13 16.12)" fill="none" stroke="#7e9a2b" stroke-linecap="round" stroke-linejoin="round" stroke-miterlimit="10" stroke-width="1.5"/>
    <path id="Path-5" data-name="Path" d="M0,0V8.838c0,2.218,4,4.017,8.929,4.017s8.929-1.8,8.929-4.017V0" transform="translate(0.052 16.12)" fill="none" stroke="#7e9a2b" stroke-linecap="round" stroke-linejoin="round" stroke-miterlimit="10" stroke-width="1.5"/>
    <path id="Path-6" data-name="Path" d="M10.533,9.541c3.352-.361,7.191-1.753,7.322-4.6C18.05,1.583,12.379,0,8.929,0,4,0,0,2.16,0,4.821,0,7.336,3.085,8.768,6,9.346" transform="translate(0.051 11.299)" fill="none" stroke="#7e9a2b" stroke-linecap="round" stroke-linejoin="round" stroke-miterlimit="10" stroke-width="1.5"/>
    <path id="Path-7" data-name="Path" d="M0,.051H.118" transform="translate(8.256 20.874)" fill="none" stroke="#7e9a2b" stroke-linecap="round" stroke-linejoin="round" stroke-miterlimit="10" stroke-width="1.5"/>
    <path id="Path-8" data-name="Path" d="M4.058,0C6.3,0,8.116.72,8.116,1.607S6.3,3.214,4.058,3.214,0,2.494,0,1.607,1.817,0,4.058,0Z" transform="translate(4.923 14.513)" fill="none" stroke="#e1b828" stroke-linecap="round" stroke-linejoin="round" stroke-miterlimit="10" stroke-width="1.5"/>
    <path id="Path-9" data-name="Path" d="M17.858,4.821c0,2.662-4,4.821-8.929,4.821S0,7.482,0,4.822,4,0,8.929,0,17.858,2.158,17.858,4.821Z" transform="translate(11.091 0.051)" fill="none" stroke="#7e9a2b" stroke-linecap="round" stroke-linejoin="round" stroke-miterlimit="10" stroke-width="1.5"/>
    <path id="Path-10" data-name="Path" d="M17.858,4.82c0,2.662-4,4.821-8.929,4.821S0,7.482,0,4.82C0,2.55,2.909.647,6.819.136A16.13,16.13,0,0,1,8.929,0C13.86,0,17.858,2.158,17.858,4.82Z" transform="translate(22.13 11.3)" fill="none" stroke="#7e9a2b" stroke-linecap="round" stroke-linejoin="round" stroke-miterlimit="10" stroke-width="1.5"/>
    <path id="Path-11" data-name="Path" d="M4.058,0C6.3,0,8.116.72,8.116,1.607S6.3,3.214,4.058,3.214,0,2.494,0,1.607,1.817,0,4.058,0Z" transform="translate(15.962 3.265)" fill="none" stroke="#e1b828" stroke-linecap="round" stroke-linejoin="round" stroke-miterlimit="10" stroke-width="1.5"/>
    <path id="Path-12" data-name="Path" d="M4.058,0C6.3,0,8.116.72,8.116,1.607S6.3,3.215,4.058,3.215,0,2.495,0,1.608,1.817,0,4.058,0Z" transform="translate(27.001 14.513)" fill="none" stroke="#e1b828" stroke-linecap="round" stroke-linejoin="round" stroke-miterlimit="10" stroke-width="1.5"/>
  </g>
</svg>
