<svg xmlns="http://www.w3.org/2000/svg" viewBox="0 0 19.688 19.688">
  <defs>
    <style>
      .cls-1 {
        fill: #9b9b9b;
      }
    </style>
  </defs>
  <g id="ic-Status" transform="translate(-0.156 -0.156)">
    <path id="Shape" class="cls-1" d="M9.843,19.688a9.831,9.831,0,1,1,9.844-9.844A9.855,9.855,0,0,1,9.843,19.688Zm0-17.813a7.969,7.969,0,1,0,7.969,7.969A7.978,7.978,0,0,0,9.843,1.875Z" transform="translate(0.156 0.156)"/>
    <path id="Shape-2" data-name="Shape" class="cls-1" d="M4.5,0h0a.844.844,0,0,0-.844.844v5l-3,.688A.844.844,0,0,0,.026,7.563a.875.875,0,0,0,.813.656h.219l3.625-.875A.844.844,0,0,0,5.339,6.5V.844A.844.844,0,0,0,4.5,0Z" transform="translate(5.505 3.5)"/>
  </g>
</svg>
