<svg xmlns="http://www.w3.org/2000/svg" width="41.495" height="29.384" viewBox="0 0 41.495 29.384">
  <g id="ic-Second-Course" transform="translate(0.698 0.707)">
    <path id="Path" d="M34.055,6.5H5.323A4.049,4.049,0,0,1,1.569,3.937L0,0H39.378L37.809,3.937A4.049,4.049,0,0,1,34.055,6.5Z" transform="translate(0.052 21.425)" fill="none" stroke="#7e9a2b" stroke-linecap="round" stroke-linejoin="round" stroke-miterlimit="10" stroke-width="1.5"/>
    <path id="Path-2" data-name="Path" d="M4.8.052H0" transform="translate(1.363 24.623)" fill="none" stroke="#7e9a2b" stroke-linecap="round" stroke-linejoin="round" stroke-miterlimit="10" stroke-width="1.5"/>
    <path id="Path-3" data-name="Path" d="M0,.052H.207" transform="translate(9.482 24.623)" fill="none" stroke="#e1b828" stroke-linecap="round" stroke-linejoin="round" stroke-miterlimit="10" stroke-width="1.5"/>
    <path id="Path-4" data-name="Path" d="M1.637,15.416C-2.146,9.333.445.419,11.326,0" transform="translate(1.161 6.009)" fill="none" stroke="#7e9a2b" stroke-linecap="round" stroke-linejoin="round" stroke-miterlimit="10" stroke-width="1.5"/>
    <path id="Path-5" data-name="Path" d="M22.755,4.384A11.56,11.56,0,0,0,15.544.189C6.321-1.279,0,6.281,0,6.281" transform="translate(9.689 0.049)" fill="none" stroke="#7e9a2b" stroke-linecap="round" stroke-linejoin="round" stroke-miterlimit="10" stroke-width="1.5"/>
    <path id="Path-6" data-name="Path" d="M.346,14.339A9.459,9.459,0,0,0,2.419,8.781,20.916,20.916,0,0,0,0,0" transform="translate(34.213 7.086)" fill="none" stroke="#7e9a2b" stroke-linecap="round" stroke-linejoin="round" stroke-miterlimit="10" stroke-width="1.5"/>
    <path id="Path-7" data-name="Path" d="M13.058,1.628c1.6,2.808-1.577,8.7-4.352,10.33A5.766,5.766,0,0,1,.778,9.808,5.911,5.911,0,0,1,2.9,1.785C5.678.164,11.452-1.18,13.058,1.628Z" transform="translate(17.978 5.534)" fill="none" stroke="#e1b828" stroke-linecap="round" stroke-linejoin="round" stroke-miterlimit="10" stroke-width="1.5"/>
    <path id="Path-8" data-name="Path" d="M0,.839A2.312,2.312,0,0,1,1.554,0" transform="translate(23.161 9.365)" fill="none" stroke="#7e9a2b" stroke-linecap="round" stroke-linejoin="round" stroke-miterlimit="10" stroke-width="1.5"/>
    <path id="Path-9" data-name="Path" d="M0,.1.1,0" transform="translate(27.927 9.05)" fill="none" stroke="#7e9a2b" stroke-linecap="round" stroke-linejoin="round" stroke-miterlimit="10" stroke-width="1.5"/>
    <path id="Path-10" data-name="Path" d="M1.723,8.8,6.66,5.559l.19.3a1.558,1.558,0,0,0,2.17.467l.4-.262a1.6,1.6,0,0,0,.461-2.2l-.207-.33A1.558,1.558,0,0,0,7.5,3.066h0A1.6,1.6,0,0,0,7.965.87L7.874.728A1.558,1.558,0,0,0,5.7.258L5.3.52a1.6,1.6,0,0,0-.461,2.2l.1.156L0,6.119" transform="translate(29.792 0.057)" fill="none" stroke="#e1b828" stroke-linecap="round" stroke-linejoin="round" stroke-miterlimit="10" stroke-width="1.5"/>
    <path id="Path-11" data-name="Path" d="M0,3.985A4.37,4.37,0,0,1,1.865,0" transform="translate(4.715 11.672)" fill="none" stroke="#e1b828" stroke-linecap="round" stroke-linejoin="round" stroke-miterlimit="10" stroke-width="1.5"/>
    <path id="Path-12" data-name="Path" d="M0,.1.1,0" transform="translate(9.378 10.413)" fill="none" stroke="#e1b828" stroke-linecap="round" stroke-linejoin="round" stroke-miterlimit="10" stroke-width="1.5"/>
  </g>
</svg>
